<?xml version="1.0" encoding="UTF-8"?>
<!DOCTYPE svg PUBLIC "-//W3C//DTD SVG 1.1//EN" "http://www.w3.org/Graphics/SVG/1.1/DTD/svg11.dtd">
<!-- Creator: CorelDRAW Home & Student 2018 (Nie do użytku komercyjnego) -->
<svg xmlns="http://www.w3.org/2000/svg" xml:space="preserve" width="12.7mm" height="12.7mm" version="1.1" style="shape-rendering:geometricPrecision; text-rendering:geometricPrecision; image-rendering:optimizeQuality; fill-rule:evenodd; clip-rule:evenodd"
viewBox="0 0 127000 127000"
 xmlns:xlink="http://www.w3.org/1999/xlink">
 <defs>
  <style type="text/css">
   <![CDATA[
    .fil5 {fill:#EBECEC}
    .fil4 {fill:#D9DADA}
    .fil0 {fill:#C5C6C6}
    .fil3 {fill:#B2B3B3}
    .fil8 {fill:#9D9E9E}
    .fil1 {fill:#898989}
    .fil2 {fill:#727271}
    .fil6 {fill:#5B5B5B}
    .fil7 {fill:#434242}
   ]]>
  </style>
 </defs>
 <g id="Warstwa_x0020_1">
  <metadata id="CorelCorpID_0Corel-Layer"/>
  <g id="_639365056">
   <circle class="fil0" cx="62891" cy="63165" r="59626"/>
   <circle class="fil1" cx="82324" cy="41522" r="17226"/>
   <path class="fil2" d="M75174 57198c13859,1294 23493,-11010 18249,-22688 -2469,-5496 -9840,-11620 -16165,-9456 -1007,344 5364,-2301 12089,734 6725,3036 8287,7686 9273,10136 986,2451 1780,8178 -798,13127 -3229,6199 -9175,10119 -16268,9680 -5001,-309 -6380,-1533 -6380,-1533z"/>
   <path class="fil3" d="M4529 50895l43039 16493 -1987 36769 -25483 530c0,0 -10075,-10080 -13772,-22613 -3698,-12533 -3455,-19110 -2852,-23945 604,-4835 998,-6957 998,-6957l57 -277z"/>
   <path class="fil4" d="M121159 50452l-19323 16330c0,0 -883,15901 -1491,18495 -607,2595 14396,7351 14396,7351 0,0 4194,-6820 5640,-13591 1446,-6772 2647,-11883 1988,-20102 -658,-8219 -1210,-8483 -1210,-8483z"/>
   <path class="fil5" d="M26362 27748c663,-1325 3203,-8613 13030,-13140 9827,-4527 19765,-1435 19765,-1435l-3754 19875 -15128 4638 -13913 -9938z"/>
   <polygon class="fil2" points="4472,51172 47568,67388 48115,65291 5225,47943 "/>
   <circle class="fil6" cx="8195" cy="56291" r="1436"/>
   <circle class="fil6" cx="17250" cy="59217" r="1436"/>
   <circle class="fil6" cx="25476" cy="61922" r="1436"/>
   <circle class="fil6" cx="34255" cy="65180" r="1436"/>
   <circle class="fil6" cx="43144" cy="68216" r="1436"/>
   <polygon class="fil7" points="58306,122617 61526,89361 64949,90024 61190,122767 "/>
   <polygon class="fil0" points="3635,70236 41097,77771 40379,79593 3917,72017 "/>
   <polygon class="fil8" points="121159,50452 101836,66782 100165,86939 101656,87547 103588,67726 121659,53029 "/>
   <circle class="fil6" cx="105571" cy="68746" r="497"/>
   <circle class="fil6" cx="105379" cy="71065" r="497"/>
   <circle class="fil6" cx="105210" cy="73767" r="497"/>
   <circle class="fil6" cx="104995" cy="76279" r="497"/>
   <circle class="fil6" cx="104753" cy="78742" r="497"/>
   <circle class="fil6" cx="104450" cy="80950" r="497"/>
   <circle class="fil6" cx="104201" cy="83104" r="497"/>
   <circle class="fil6" cx="103980" cy="85229" r="497"/>
   <polygon class="fil1" points="26362,27748 39527,38079 56090,33551 55573,32144 39969,36091 27394,25585 "/>
   <path class="fil8" d="M38917 16979l666 7878 14023 -663c515,-2742 699,-5352 1214,-8093 -4638,-1033 -9884,-741 -15903,878z"/>
   <circle class="fil6" cx="57467" cy="14781" r="745"/>
   <circle class="fil6" cx="56861" cy="17817" r="745"/>
   <circle class="fil6" cx="56363" cy="20882" r="745"/>
   <circle class="fil6" cx="55756" cy="23890" r="745"/>
   <circle class="fil6" cx="55094" cy="26651" r="745"/>
   <circle class="fil6" cx="54404" cy="29357" r="745"/>
   <path class="fil1" d="M63728 100658c0,0 15877,1905 27029,-27 11153,-1932 11484,-2760 11484,-2760l3308 6953c0,0 -11632,11302 -22846,14597 -11214,3294 -21513,3346 -21513,3346l2538 -22109z"/>
   <circle class="fil4" cx="65200" cy="104389" r="1049"/>
   <circle class="fil4" cx="72736" cy="104665" r="1049"/>
   <circle class="fil4" cx="81294" cy="104581" r="1049"/>
   <circle class="fil4" cx="88831" cy="103589" r="1049"/>
   <circle class="fil4" cx="96782" cy="101933" r="1049"/>
   <path class="fil6" d="M100669 80850c0,0 -13068,1210 -32429,-7178 -5552,-2405 -7844,-3875 -9779,-5320 -276,1050 12399,9650 24683,12656 17184,4205 17278,2826 17278,2826l247 -2984z"/>
  </g>
 </g>
</svg>
